<svg width="300" height="150" viewBox="0 0 300 150" fill="none" xmlns="http://www.w3.org/2000/svg">
<path opacity="0.3" fill-rule="evenodd" clip-rule="evenodd" d="M56.125 47.1466C60.9404 45.9829 65.8626 45.397 70.8 45.3999C109.9 45.3999 141.587 81.6133 141.587 126.267C141.587 170.933 109.9 207.147 70.8 207.147C31.7 207.147 0 170.947 0 126.267C0 124.96 0.025 123.64 0.0875 122.333H0C0 54.9333 48 0.0932617 107 0.0932617V27.2399C87.8625 27.2399 70.2125 34.6799 56.125 47.1466ZM214.55 47.1466C219.275 45.9999 224.175 45.3999 229.2 45.3999C268.3 45.3999 300 81.6133 300 126.267C300 170.933 268.3 207.147 229.2 207.147C190.1 207.147 158.413 170.947 158.413 126.267C158.413 124.96 158.438 123.64 158.5 122.333H158.413C158.413 54.9333 206.413 0.0932617 265.413 0.0932617V27.2399C246.262 27.2399 228.637 34.6799 214.55 47.1466Z" fill="#141414"/>
</svg>
