<svg width="104" height="72" viewBox="0 0 104 72" fill="none" xmlns="http://www.w3.org/2000/svg">
<path fill-rule="evenodd" clip-rule="evenodd" d="M19.7305 16.5076C21.3857 16.1076 23.0778 15.9062 24.775 15.9072C38.2156 15.9072 49.1082 28.3555 49.1082 43.7051C49.1082 59.0593 38.2156 71.5076 24.775 71.5076C11.3344 71.5076 0.4375 59.0638 0.4375 43.7051C0.4375 43.2559 0.446094 42.8022 0.467578 42.353H0.4375C0.4375 19.1843 16.9375 0.333008 37.2188 0.333008V9.66467C30.6402 9.66467 24.573 12.2222 19.7305 16.5076ZM74.1891 16.5076C75.8133 16.1134 77.4977 15.9072 79.225 15.9072C92.6656 15.9072 103.562 28.3555 103.562 43.7051C103.562 59.0593 92.6656 71.5076 79.225 71.5076C65.7844 71.5076 54.8918 59.0638 54.8918 43.7051C54.8918 43.2559 54.9004 42.8022 54.9219 42.353H54.8918C54.8918 19.1843 71.3918 0.333008 91.673 0.333008V9.66467C85.0902 9.66467 79.0316 12.2222 74.1891 16.5076Z" fill="url(#paint0_linear_40_250)"/>
<defs>
<linearGradient id="paint0_linear_40_250" x1="9.60017" y1="-8.8706" x2="56.1646" y2="181.936" gradientUnits="userSpaceOnUse">
<stop offset="0.00961538" stop-color="#EA3737"/>
<stop offset="1" stop-color="#CC0000"/>
</linearGradient>
</defs>
</svg>
